<svg width="32" height="32" viewBox="0 0 32 32" fill="none" xmlns="http://www.w3.org/2000/svg">
<path d="M11.7792 25.3294C11.7792 27.6125 9.59004 29.4633 6.8896 29.4633C4.18915 29.4633 2 27.6125 2 25.3294C2 23.0464 4.18915 21.1956 6.8896 21.1956C9.59004 21.1956 11.7792 23.0464 11.7792 25.3294Z" fill="white"/>
<path fill-rule="evenodd" clip-rule="evenodd" d="M29.5577 3V20.6338L26.8677 20.7438V6.48767L11.7404 10.4604V25.7464H9.05035V8.38566L29.5577 3Z" fill="white"/>
<path d="M29.5577 20.6338C29.5577 22.9169 27.3686 24.7677 24.6681 24.7677C21.9677 24.7677 19.7785 22.9169 19.7785 20.6338C19.7785 18.3508 21.9677 16.5 24.6681 16.5C27.3686 16.5 29.5577 18.3508 29.5577 20.6338Z" fill="white"/>
</svg>
