<?xml version="1.0" standalone="no"?>
<!DOCTYPE svg PUBLIC "-//W3C//DTD SVG 20010904//EN"
 "http://www.w3.org/TR/2001/REC-SVG-20010904/DTD/svg10.dtd">
<svg version="1.0" xmlns="http://www.w3.org/2000/svg"
 width="700.000000pt" height="700.000000pt" viewBox="0 0 700.000000 700.000000"
 preserveAspectRatio="xMidYMid meet">
<metadata>
Created by potrace 1.14, written by Peter Selinger 2001-2017
</metadata>
<g transform="translate(0.000000,700.000000) scale(0.100000,-0.100000)"
fill="#000000" stroke="none">
<path d="M70 3480 l0 -3450 3450 0 3450 0 0 3450 0 3450 -3450 0 -3450 0 0
-3450z m3665 2064 c579 -78 1110 -413 1443 -911 453 -677 466 -1565 32 -2264
-284 -458 -768 -805 -1295 -927 -117 -28 -306 -52 -401 -52 l-74 0 0 268 0
269 118 6 c599 32 1153 461 1348 1044 166 495 80 1022 -235 1443 -53 71 -189
208 -266 270 -248 197 -543 310 -877 336 l-88 7 0 269 0 269 93 -6 c50 -4 142
-13 202 -21z m48 -860 c419 -79 783 -402 925 -819 54 -159 75 -380 52 -548
-78 -579 -550 -1027 -1122 -1066 l-98 -6 0 226 0 225 90 12 c104 14 224 54
307 103 32 19 99 74 148 124 73 72 100 108 138 181 202 393 47 865 -348 1058
-83 41 -173 65 -267 73 l-68 6 0 230 0 230 83 -8 c45 -3 117 -13 160 -21z
m-1067 -2121 c-5 -6 -1239 901 -1242 913 -2 5 277 214 619 465 l622 456 3
-915 c1 -503 0 -917 -2 -919z m916 1315 c273 -136 336 -501 123 -714 -215
-215 -577 -159 -710 109 -88 178 -63 366 67 503 101 107 195 146 344 142 93
-3 106 -6 176 -40z"/>
<path d="M2218 3557 c-53 -40 -97 -75 -98 -78 0 -6 98 -82 178 -138 l32 -22 0
155 c0 86 -3 156 -7 155 -5 0 -52 -33 -105 -72z"/>
</g>
</svg>
