<svg width="90" height="32" viewBox="0 0 90 32" fill="none" xmlns="http://www.w3.org/2000/svg">
<circle cx="15.6759" cy="16" r="3.02986" fill="white"/>
<path d="M16.3573 22.8045C20.1154 22.8045 23.1618 19.758 23.1618 16C23.1618 12.242 20.1154 9.1955 16.3573 9.1955" stroke="white" stroke-width="3.09704"/>
<path d="M15.6759 28.3463C22.4946 28.3463 28.0223 22.8187 28.0223 16C28.0223 9.1813 22.4946 3.65365 15.6759 3.65365" stroke="white" stroke-width="3.64854"/>
<path d="M9.48545 19.3129L9.48545 12.3205M9.48545 12.3205L4.47655 16L9.48545 19.6795L9.48545 12.3205Z" stroke="white" stroke-width="2.60892"/>
<path fill-rule="evenodd" clip-rule="evenodd" d="M85.5234 16.8493H69.782V27.7913H70.7055V20.1992H76.7232V21.9398H73.043V23.32H76.2508V25.0855H73.043V27.7913H77.0857L79.7419 24.153L76.8947 20.1992H79.6798L81.1469 22.3004L82.6265 20.1992H85.4116L82.5643 24.153L85.2205 27.7913H85.5234V16.8493ZM82.4047 27.7913L81.1469 26.0304L79.8992 27.7913H82.4047Z" fill="white"/>
<path d="M35.2396 27.7913C34.7008 27.7913 34.191 27.7499 33.7103 27.667C33.2295 27.5758 32.8192 27.4515 32.4794 27.294V25.3668C32.8524 25.5409 33.2668 25.6818 33.7227 25.7896C34.1786 25.8973 34.6055 25.9512 35.0034 25.9512C35.4178 25.9512 35.7286 25.918 35.9359 25.8517C36.1514 25.7771 36.2591 25.6155 36.2591 25.3668C36.2591 25.1928 36.197 25.056 36.0726 24.9565C35.9566 24.8571 35.7701 24.7659 35.5131 24.683C35.2645 24.6001 34.937 24.4965 34.5309 24.3722C33.9921 24.1981 33.5652 24.0074 33.2503 23.8002C32.9353 23.593 32.7073 23.3402 32.5664 23.0418C32.4338 22.7434 32.3675 22.3787 32.3675 21.9477C32.3675 21.1602 32.6452 20.5634 33.2005 20.1572C33.7642 19.7428 34.5972 19.5356 35.6996 19.5356C36.1389 19.5356 36.5907 19.5729 37.0549 19.6475C37.5273 19.7221 37.9086 19.805 38.1987 19.8961V21.8358C37.8092 21.6783 37.4362 21.5664 37.0797 21.5001C36.7233 21.4337 36.3876 21.4006 36.0726 21.4006C35.7079 21.4006 35.3971 21.4296 35.1401 21.4876C34.8832 21.5456 34.7547 21.6948 34.7547 21.9352C34.7547 22.1424 34.8624 22.2958 35.078 22.3953C35.3018 22.4864 35.6955 22.6066 36.2591 22.7558C36.914 22.9299 37.4113 23.1413 37.7511 23.3899C38.0993 23.6386 38.3355 23.9287 38.4598 24.2603C38.5842 24.5835 38.6463 24.9524 38.6463 25.3668C38.6463 26.0963 38.3645 26.6848 37.8009 27.1324C37.2372 27.5717 36.3835 27.7913 35.2396 27.7913Z" fill="white"/>
<path d="M39.5128 27.667V19.6599H43.0936C43.9142 19.6599 44.6146 19.7967 45.1948 20.0702C45.7751 20.3355 46.2185 20.7665 46.5252 21.3633C46.8319 21.9518 46.9852 22.7351 46.9852 23.7132C46.9852 25.0892 46.6495 26.0921 45.9781 26.7221C45.3067 27.352 44.3452 27.667 43.0936 27.667H39.5128ZM41.8503 25.8766H42.7952C43.1848 25.8766 43.5122 25.8227 43.7774 25.715C44.0427 25.5989 44.2458 25.3876 44.3867 25.0809C44.5276 24.7659 44.598 24.31 44.598 23.7132C44.598 23.1164 44.5317 22.6564 44.3991 22.3331C44.2748 22.0015 44.08 21.7736 43.8147 21.6493C43.5495 21.5166 43.2096 21.4503 42.7952 21.4503H41.8503V25.8766Z" fill="white"/>
<path d="M47.8543 27.667V19.6599H53.9218V21.4503H50.1918V22.7558H53.4618V24.5711H50.1918V25.8766H53.9218V27.667H47.8543Z" fill="white"/>
<path d="M58.8809 27.7913C57.4303 27.7913 56.3237 27.4349 55.5612 26.7221C54.7986 26.0092 54.4173 25.0021 54.4173 23.7008C54.4173 22.358 54.7903 21.3301 55.5363 20.6173C56.2823 19.8961 57.393 19.5356 58.8684 19.5356C59.3658 19.5356 59.8092 19.5729 60.1988 19.6475C60.5884 19.7221 60.9614 19.8257 61.3178 19.9583V21.9974C60.605 21.6824 59.8424 21.5249 59.0301 21.5249C58.2758 21.5249 57.7163 21.699 57.3516 22.0471C56.9869 22.387 56.8045 22.9382 56.8045 23.7008C56.8045 24.4468 56.9951 24.9855 57.3764 25.3171C57.766 25.6404 58.3255 25.802 59.0549 25.802C59.4528 25.802 59.8382 25.7647 60.2112 25.6901C60.5925 25.6155 60.9697 25.4995 61.3427 25.342V27.3935C60.9863 27.5178 60.6091 27.6131 60.2112 27.6794C59.8217 27.754 59.3782 27.7913 58.8809 27.7913Z" fill="white"/>
<path d="M62.2183 27.667V19.6599H64.5557V22.4823L66.9802 19.6599H69.641L66.8186 22.9423L69.8399 27.667H67.3532L65.3763 24.4343L64.5557 25.3544V27.667H62.2183Z" fill="white"/>
</svg>
