<svg width="90" height="32" viewBox="0 0 90 32" fill="none" xmlns="http://www.w3.org/2000/svg">
<g clip-path="url(#clip0_2_40)">
<circle cx="15.6759" cy="16" r="3.02986" fill="white"/>
<path d="M16.3573 22.8045C20.1154 22.8045 23.1618 19.758 23.1618 16C23.1618 12.242 20.1154 9.1955 16.3573 9.1955" stroke="white" stroke-width="3.09704"/>
<path d="M15.6759 28.3463C22.4946 28.3463 28.0223 22.8187 28.0223 16C28.0223 9.1813 22.4946 3.65365 15.6759 3.65365" stroke="white" stroke-width="3.64854"/>
<path d="M9.48545 19.3129L9.48545 12.3205M9.48545 12.3205L4.47655 16L9.48545 19.6795L9.48545 12.3205Z" stroke="white" stroke-width="2.60892"/>
<path fill-rule="evenodd" clip-rule="evenodd" d="M90.156 11H74.4146V21.942H75.338V14.3499H81.3558V16.0905H77.6755V17.4706H80.8833V19.2362H77.6755V21.942H81.7182L84.3744 18.3037L81.5272 14.3499H84.3123L85.7794 16.4511L87.259 14.3499H90.0441L87.1968 18.3037L89.853 21.942H90.156V11ZM87.0372 21.942L85.7794 20.1811L84.5317 21.942H87.0372Z" fill="white"/>
<path d="M39.8721 21.942C39.3333 21.942 38.8236 21.9006 38.3428 21.8177C37.862 21.7265 37.4517 21.6022 37.1119 21.4447V19.5175C37.4849 19.6916 37.8993 19.8325 38.3552 19.9402C38.8111 20.048 39.238 20.1019 39.6359 20.1019C40.0503 20.1019 40.3612 20.0687 40.5684 20.0024C40.7839 19.9278 40.8916 19.7662 40.8916 19.5175C40.8916 19.3434 40.8295 19.2067 40.7051 19.1072C40.5891 19.0077 40.4026 18.9166 40.1456 18.8337C39.897 18.7508 39.5696 18.6472 39.1634 18.5228C38.6246 18.3488 38.1977 18.1581 37.8828 17.9509C37.5678 17.7437 37.3398 17.4909 37.1989 17.1925C37.0663 16.8941 37 16.5294 37 16.0983C37 15.3109 37.2777 14.7141 37.833 14.3079C38.3967 13.8935 39.2297 13.6863 40.3321 13.6863C40.7715 13.6863 41.2232 13.7236 41.6874 13.7982C42.1598 13.8728 42.5411 13.9556 42.8313 14.0468V15.9864C42.4417 15.8289 42.0687 15.717 41.7122 15.6507C41.3558 15.5844 41.0201 15.5513 40.7051 15.5513C40.3404 15.5513 40.0296 15.5803 39.7726 15.6383C39.5157 15.6963 39.3872 15.8455 39.3872 16.0859C39.3872 16.2931 39.495 16.4465 39.7105 16.5459C39.9343 16.6371 40.328 16.7573 40.8916 16.9065C41.5465 17.0806 42.0438 17.2919 42.3836 17.5406C42.7318 17.7893 42.968 18.0794 43.0924 18.4109C43.2167 18.7342 43.2789 19.1031 43.2789 19.5175C43.2789 20.2469 42.997 20.8354 42.4334 21.283C41.8697 21.7224 41.016 21.942 39.8721 21.942Z" fill="white"/>
<path d="M44.1453 21.8177V13.8106H47.7261C48.5467 13.8106 49.2471 13.9474 49.8274 14.2209C50.4076 14.4861 50.851 14.9172 51.1577 15.514C51.4644 16.1025 51.6178 16.8858 51.6178 17.8639C51.6178 19.2398 51.2821 20.2428 50.6107 20.8727C49.9393 21.5027 48.9777 21.8177 47.7261 21.8177H44.1453ZM46.4828 20.0273H47.4277C47.8173 20.0273 48.1447 19.9734 48.4099 19.8656C48.6752 19.7496 48.8783 19.5382 49.0192 19.2315C49.1601 18.9166 49.2305 18.4607 49.2305 17.8639C49.2305 17.2671 49.1642 16.807 49.0316 16.4838C48.9073 16.1522 48.7125 15.9243 48.4472 15.7999C48.182 15.6673 47.8422 15.601 47.4277 15.601H46.4828V20.0273Z" fill="white"/>
<path d="M52.4868 21.8177V13.8106H58.5543V15.601H54.8243V16.9065H58.0943V18.7218H54.8243V20.0273H58.5543V21.8177H52.4868Z" fill="white"/>
<path d="M63.5134 21.942C62.0628 21.942 60.9563 21.5856 60.1937 20.8727C59.4311 20.1599 59.0498 19.1528 59.0498 17.8514C59.0498 16.5086 59.4228 15.4808 60.1688 14.768C60.9148 14.0468 62.0255 13.6863 63.501 13.6863C63.9983 13.6863 64.4417 13.7236 64.8313 13.7982C65.2209 13.8728 65.5939 13.9764 65.9503 14.109V16.1481C65.2375 15.8331 64.4749 15.6756 63.6626 15.6756C62.9083 15.6756 62.3488 15.8497 61.9841 16.1978C61.6194 16.5376 61.437 17.0889 61.437 17.8514C61.437 18.5974 61.6277 19.1362 62.0089 19.4678C62.3985 19.791 62.958 19.9527 63.6875 19.9527C64.0853 19.9527 64.4708 19.9154 64.8438 19.8408C65.225 19.7662 65.6022 19.6501 65.9752 19.4926V21.5441C65.6188 21.6685 65.2416 21.7638 64.8438 21.8301C64.4542 21.9047 64.0107 21.942 63.5134 21.942Z" fill="white"/>
<path d="M66.8508 21.8177V13.8106H69.1882V16.633L71.6128 13.8106H74.2735L71.4511 17.093L74.4724 21.8177H71.9858L70.0088 18.585L69.1882 19.5051V21.8177H66.8508Z" fill="white"/>
</g>
<defs>
<clipPath id="clip0_2_40">
<rect width="90" height="32" fill="white"/>
</clipPath>
</defs>
</svg>
