<svg width="32" height="32" viewBox="0 0 32 32" fill="none" xmlns="http://www.w3.org/2000/svg">
<path fill-rule="evenodd" clip-rule="evenodd" d="M26.6578 10.6974L27.4603 9.89487L26.6578 9.0923L22.368 4.80257L21.5655 4L20.7629 4.80257L17.9503 7.61517L17.9402 7.60513L16.526 9.01935L16.5361 9.02939L6.06409 19.5014L5.84179 19.7237L5.76554 20.0287L4.42928 25.3737L4 27.0908L5.73964 26.7645L11.3656 25.7092L11.7107 25.6445L11.959 25.3962L22.4309 14.9243L22.4315 14.9249L23.8458 13.5107L23.8451 13.51L26.6578 10.6974ZM22.24 11.9049L24.2501 9.89487L21.5655 7.21027L19.5554 9.22031L22.24 11.9049ZM18.1412 10.6345L7.89152 20.8842L7.06079 24.2071L10.6021 23.5429L20.8258 13.3191L18.1412 10.6345Z" fill="white"/>
</svg>
