<svg width="181" height="65" viewBox="0 0 181 65" fill="none" xmlns="http://www.w3.org/2000/svg">
<circle cx="30.916" cy="32.1021" r="6.26687" fill="white"/>
<path d="M32.3254 46.1764C40.0984 46.1764 46.3996 39.8751 46.3996 32.1021C46.3996 24.3292 40.0984 18.0279 32.3254 18.0279" stroke="white" stroke-width="6.40581"/>
<path d="M30.9159 57.639C45.0195 57.639 56.4528 46.2057 56.4528 32.1021C56.4528 17.9985 45.0195 6.56532 30.9159 6.56532" stroke="white" stroke-width="7.54652"/>
<path d="M18.1118 38.9545L18.1118 24.4915M18.1118 24.4915L7.75153 32.1021L18.1118 39.7128L18.1118 24.4915Z" stroke="white" stroke-width="5.3962"/>
<path fill-rule="evenodd" clip-rule="evenodd" d="M175.386 33.8589H142.827V56.491H144.737V40.7876H157.184V44.3879H149.572V47.2425H156.207V50.8943H149.572V56.491H157.934L163.428 48.9655L157.539 40.7876H163.3L166.334 45.1337L169.394 40.7876H175.155L169.266 48.9655L174.76 56.491H175.386V33.8589ZM168.936 56.491L166.334 52.8488L163.753 56.491H168.936Z" fill="white"/>
<path d="M71.3808 56.491C70.2664 56.491 69.2121 56.4053 68.2177 56.2338C67.2233 56.0452 66.3746 55.7881 65.6717 55.4623V51.4762C66.4432 51.8362 67.3004 52.1277 68.2434 52.3506C69.1863 52.5735 70.0693 52.6849 70.8922 52.6849C71.7494 52.6849 72.3924 52.6163 72.821 52.4792C73.2667 52.3249 73.4896 51.9905 73.4896 51.4762C73.4896 51.1162 73.361 50.8333 73.1039 50.6276C72.8638 50.4218 72.4781 50.2332 71.9466 50.0618C71.4323 49.8903 70.7551 49.676 69.915 49.4189C68.8006 49.0588 67.9176 48.6645 67.2661 48.2359C66.6147 47.8073 66.1432 47.2844 65.8517 46.6672C65.5774 46.05 65.4403 45.2956 65.4403 44.4041C65.4403 42.7754 66.0146 41.541 67.1633 40.7009C68.3291 39.8436 70.0521 39.415 72.3324 39.415C73.241 39.415 74.1754 39.4922 75.1355 39.6465C76.1127 39.8008 76.9014 39.9722 77.5014 40.1608V44.1726C76.6956 43.8469 75.9241 43.6154 75.1869 43.4783C74.4497 43.3411 73.7554 43.2726 73.1039 43.2726C72.3495 43.2726 71.7066 43.3326 71.1751 43.4526C70.6436 43.5726 70.3779 43.8812 70.3779 44.3784C70.3779 44.807 70.6008 45.1242 71.0465 45.3299C71.5094 45.5185 72.3238 45.7671 73.4896 46.0757C74.844 46.4357 75.8727 46.8729 76.5756 47.3872C77.2957 47.9016 77.7843 48.5016 78.0415 49.1874C78.2987 49.8561 78.4272 50.619 78.4272 51.4762C78.4272 52.9849 77.8443 54.2022 76.6785 55.128C75.5127 56.0367 73.7468 56.491 71.3808 56.491Z" fill="white"/>
<path d="M80.2194 56.2338V39.6722H87.6258C89.3231 39.6722 90.7718 39.9551 91.972 40.5209C93.1721 41.0695 94.0893 41.961 94.7237 43.1954C95.358 44.4127 95.6752 46.0328 95.6752 48.0559C95.6752 50.9019 94.9808 52.9764 93.5921 54.2793C92.2034 55.5823 90.2146 56.2338 87.6258 56.2338H80.2194ZM85.0541 52.5306H87.0086C87.8144 52.5306 88.4916 52.4192 89.0402 52.1963C89.5889 51.9563 90.0089 51.5191 90.3004 50.8847C90.5918 50.2332 90.7376 49.2903 90.7376 48.0559C90.7376 46.8215 90.6004 45.8699 90.3261 45.2013C90.0689 44.5155 89.666 44.0441 89.1174 43.7869C88.5688 43.5126 87.8658 43.3754 87.0086 43.3754H85.0541V52.5306Z" fill="white"/>
<path d="M97.4727 56.2338V39.6722H110.023V43.3754H102.308V46.0757H109.071V49.8303H102.308V52.5306H110.023V56.2338H97.4727Z" fill="white"/>
<path d="M120.28 56.491C117.279 56.491 114.991 55.7538 113.413 54.2793C111.836 52.8049 111.047 50.7219 111.047 48.0302C111.047 45.2527 111.819 43.1268 113.362 41.6524C114.905 40.1608 117.202 39.415 120.254 39.415C121.283 39.415 122.2 39.4922 123.006 39.6465C123.812 39.8008 124.583 40.0151 125.32 40.2894V44.507C123.846 43.8555 122.269 43.5297 120.588 43.5297C119.028 43.5297 117.871 43.8898 117.117 44.6098C116.362 45.3128 115.985 46.4529 115.985 48.0302C115.985 49.5732 116.379 50.6876 117.168 51.3733C117.974 52.042 119.131 52.3763 120.64 52.3763C121.463 52.3763 122.26 52.2992 123.031 52.1449C123.82 51.9905 124.6 51.7505 125.372 51.4248V55.6681C124.634 55.9252 123.854 56.1224 123.031 56.2595C122.226 56.4138 121.308 56.491 120.28 56.491Z" fill="white"/>
<path d="M127.183 56.2338V39.6722H132.017V45.5099L137.032 39.6722H142.536L136.698 46.4614L142.947 56.2338H137.804L133.715 49.5475L132.017 51.4505V56.2338H127.183Z" fill="white"/>
</svg>
