<svg width="181" height="65" viewBox="0 0 181 65" fill="none" xmlns="http://www.w3.org/2000/svg">
<g clip-path="url(#clip0_4_50)">
<path d="M37.1828 32.1021C37.1828 35.5632 34.3771 38.369 30.916 38.369C27.4549 38.369 24.6491 35.5632 24.6491 32.1021C24.6491 28.641 27.4549 25.8353 30.916 25.8353C34.3771 25.8353 37.1828 28.641 37.1828 32.1021Z" fill="white"/>
<path fill-rule="evenodd" clip-rule="evenodd" d="M43.1967 32.1021C43.1967 26.0981 38.3294 21.2308 32.3254 21.2308V14.825C41.8673 14.825 49.6025 22.5602 49.6025 32.1021C49.6025 41.644 41.8673 49.3793 32.3254 49.3793V42.9734C38.3294 42.9734 43.1967 38.1062 43.1967 32.1021Z" fill="white"/>
<path fill-rule="evenodd" clip-rule="evenodd" d="M52.6795 32.1021C52.6795 20.0825 42.9356 10.3386 30.9159 10.3386V2.79206C47.1035 2.79206 60.226 15.9146 60.226 32.1021C60.226 48.2897 47.1035 61.4122 30.9159 61.4122V53.8657C42.9356 53.8657 52.6795 44.1218 52.6795 32.1021Z" fill="white"/>
<path fill-rule="evenodd" clip-rule="evenodd" d="M20.8099 45.0427L3.19414 32.1021L20.8099 19.1616L20.8099 45.0427ZM15.4137 34.3829V29.8214L12.3089 32.1021L15.4137 34.3829Z" fill="white"/>
<path fill-rule="evenodd" clip-rule="evenodd" d="M180.946 21H148.387V43.6321H150.297V27.9287H162.744V31.5291H155.132V34.3836H161.767V38.0354H155.132V43.6321H163.494L168.988 36.1067L163.099 27.9287H168.859L171.894 32.2749L174.954 27.9287H180.715L174.826 36.1067L180.32 43.6321H180.946V21ZM174.495 43.6321L171.894 39.9899L169.313 43.6321H174.495Z" fill="white"/>
<path d="M76.9406 43.6321C75.8262 43.6321 74.7718 43.5464 73.7774 43.375C72.783 43.1864 71.9344 42.9292 71.2315 42.6035V38.6173C72.003 38.9774 72.8602 39.2688 73.8031 39.4917C74.7461 39.7146 75.629 39.826 76.452 39.826C77.3092 39.826 77.9521 39.7575 78.3807 39.6203C78.8265 39.466 79.0494 39.1317 79.0494 38.6173C79.0494 38.2573 78.9208 37.9744 78.6636 37.7687C78.4236 37.563 78.0378 37.3744 77.5064 37.2029C76.992 37.0315 76.3148 36.8172 75.4747 36.56C74.3603 36.2 73.4774 35.8056 72.8259 35.377C72.1744 34.9484 71.7029 34.4255 71.4115 33.8083C71.1372 33.1911 71 32.4367 71 31.5452C71 29.9165 71.5743 28.6821 72.723 27.842C73.8889 26.9848 75.6119 26.5562 77.8921 26.5562C78.8008 26.5562 79.7351 26.6333 80.6952 26.7876C81.6725 26.9419 82.4611 27.1134 83.0612 27.302V31.3138C82.2554 30.988 81.4839 30.7566 80.7467 30.6194C80.0095 30.4823 79.3151 30.4137 78.6636 30.4137C77.9092 30.4137 77.2663 30.4737 76.7348 30.5937C76.2034 30.7137 75.9376 31.0223 75.9376 31.5195C75.9376 31.9481 76.1605 32.2653 76.6063 32.471C77.0692 32.6596 77.8835 32.9082 79.0494 33.2168C80.4038 33.5769 81.4325 34.014 82.1354 34.5284C82.8554 35.0427 83.3441 35.6428 83.6012 36.3286C83.8584 36.9972 83.987 37.7601 83.987 38.6173C83.987 40.1261 83.4041 41.3433 82.2382 42.2691C81.0724 43.1778 79.3065 43.6321 76.9406 43.6321Z" fill="white"/>
<path d="M85.7791 43.375V26.8133H93.1856C94.8829 26.8133 96.3316 27.0962 97.5317 27.662C98.7318 28.2106 99.6491 29.1021 100.283 30.3365C100.918 31.5538 101.235 33.174 101.235 35.197C101.235 38.043 100.541 40.1175 99.1519 41.4205C97.7632 42.7235 95.7744 43.375 93.1856 43.375H85.7791ZM90.6139 39.6717H92.5684C93.3742 39.6717 94.0514 39.5603 94.6 39.3374C95.1486 39.0974 95.5687 38.6602 95.8601 38.0259C96.1516 37.3744 96.2973 36.4314 96.2973 35.197C96.2973 33.9626 96.1601 33.0111 95.8858 32.3424C95.6287 31.6567 95.2258 31.1852 94.6771 30.928C94.1285 30.6537 93.4256 30.5166 92.5684 30.5166H90.6139V39.6717Z" fill="white"/>
<path d="M103.032 43.375V26.8133H115.582V30.5166H107.867V33.2168H114.631V36.9715H107.867V39.6717H115.582V43.375H103.032Z" fill="white"/>
<path d="M125.839 43.6321C122.839 43.6321 120.55 42.8949 118.973 41.4205C117.396 39.9461 116.607 37.863 116.607 35.1713C116.607 32.3939 117.379 30.268 118.922 28.7935C120.465 27.302 122.762 26.5562 125.814 26.5562C126.842 26.5562 127.76 26.6333 128.565 26.7876C129.371 26.9419 130.143 27.1562 130.88 27.4305V31.6481C129.406 30.9966 127.828 30.6709 126.148 30.6709C124.588 30.6709 123.431 31.0309 122.676 31.751C121.922 32.4539 121.545 33.594 121.545 35.1713C121.545 36.7143 121.939 37.8287 122.728 38.5145C123.534 39.1831 124.691 39.5174 126.2 39.5174C127.022 39.5174 127.82 39.4403 128.591 39.286C129.38 39.1317 130.16 38.8917 130.931 38.5659V42.8092C130.194 43.0664 129.414 43.2635 128.591 43.4007C127.785 43.555 126.868 43.6321 125.839 43.6321Z" fill="white"/>
<path d="M132.742 43.375V26.8133H137.577V32.6511L142.592 26.8133H148.095L142.258 33.6026L148.507 43.375H143.363L139.274 36.6886L137.577 38.5916V43.375H132.742Z" fill="white"/>
</g>
<defs>
<clipPath id="clip0_4_50">
<rect width="180.575" height="64.2043" fill="white"/>
</clipPath>
</defs>
</svg>
