<svg width="32" height="32" viewBox="0 0 32 32" fill="none" xmlns="http://www.w3.org/2000/svg">
<path fill-rule="evenodd" clip-rule="evenodd" d="M13.5423 7L30.3068 7L30.3068 10.974L13.5423 10.974L13.5423 7ZM13.5423 14.481L30.3068 14.481L30.3068 18.455L13.5423 18.455L13.5423 14.481ZM13.5423 21.8394L30.3068 21.8394L30.3068 25.8134L13.5423 25.8134L13.5423 21.8394Z" fill="white"/>
<path fill-rule="evenodd" clip-rule="evenodd" d="M10.0144 8.24442L4.3529 13.9059L1.01722 10.5702L2.26165 9.32583L4.3529 11.4171L8.76999 7L10.0144 8.24442Z" fill="white"/>
<path fill-rule="evenodd" clip-rule="evenodd" d="M9.99718 17.3152L4.33568 22.9767L1 19.641L2.24442 18.3966L4.33568 20.4878L8.75276 16.0707L9.99718 17.3152Z" fill="white"/>
</svg>
